<?xml version="1.0" encoding="UTF-8"?>
<svg version="1.1" xmlns="http://www.w3.org/2000/svg" width="128" height="128">
<path d="M0 0 C1.59838715 -0.01555183 1.59838715 -0.01555183 3.22906494 -0.03141785 C6.74945649 -0.05850995 10.2686043 -0.04882124 13.7890625 -0.03637695 C16.23616891 -0.04228444 18.68327242 -0.04953055 21.13037109 -0.05805969 C26.25829123 -0.06994418 31.38577743 -0.0632243 36.51367188 -0.04394531 C43.0881908 -0.02105353 49.66141783 -0.04784068 56.23580933 -0.08900738 C61.28874513 -0.11456928 66.34137115 -0.11200979 71.39434814 -0.10111427 C73.81847303 -0.09962622 76.2426215 -0.10733323 78.66668701 -0.12436485 C82.05463283 -0.1443048 85.44028535 -0.1259763 88.828125 -0.09765625 C89.83087463 -0.11137268 90.83362427 -0.12508911 91.86676025 -0.13922119 C98.33632656 -0.03101951 98.33632656 -0.03101951 101.1537075 1.78284931 C104.66265486 5.47551954 105.13303394 9.39515556 105.06103516 14.24121094 C105.06979675 14.975327 105.07855835 15.70944305 105.08758545 16.46580505 C105.10947955 18.87714851 105.09506591 21.28663806 105.078125 23.69799805 C105.0814957 25.38138682 105.08635043 27.06477322 105.09262085 28.74815369 C105.09997826 32.26951355 105.08932247 35.79023768 105.06591797 39.31152344 C105.03740815 43.82004578 105.05385418 48.32708132 105.08378029 52.83554935 C105.1018656 56.30923121 105.09609012 59.78256164 105.08314133 63.2562542 C105.07981183 64.91840225 105.08387839 66.58058246 105.09553909 68.24269295 C105.10827163 70.56727511 105.08884305 72.88946298 105.06103516 75.21386719 C105.07621689 76.23874741 105.07621689 76.23874741 105.09170532 77.28433228 C105.00725208 81.10400159 104.47729238 82.58684715 101.99862671 85.56590271 C97.5453124 89.17901815 93.79614633 88.87469115 88.25 88.97924805 C86.88918808 89.01041969 86.88918808 89.01041969 85.50088501 89.04222107 C82.5970227 89.10771315 79.69306845 89.16659993 76.7890625 89.2253418 C74.82290708 89.26852734 72.85676103 89.31214164 70.890625 89.35620117 C66.06519888 89.46339419 61.2396801 89.56466261 56.4140625 89.6628418 C59.33607281 91.84234266 59.33607281 91.84234266 62.9140625 92.6003418 C67.98415596 94.13947731 67.98415596 94.13947731 69.4140625 96.6628418 C70.12186227 102.23676496 70.12186227 102.23676496 69.4140625 104.6628418 C66.55063386 107.7054121 64.34858476 108.918545 60.25390625 109.18041992 C58.61999643 109.20668668 56.98560633 109.20996627 55.3515625 109.1940918 C54.48265381 109.1979187 53.61374512 109.20174561 52.71850586 109.20568848 C50.88621864 109.20840359 49.0538924 109.20107047 47.22167969 109.18432617 C44.42294603 109.16290978 41.62677917 109.18414034 38.828125 109.2097168 C37.04426519 109.20707345 35.26040697 109.20194832 33.4765625 109.1940918 C32.64310303 109.20218872 31.80964355 109.21028564 30.95092773 109.21862793 C26.91166929 109.15369275 24.88626052 108.9607191 21.38916016 106.75463867 C19.26946924 104.5097052 18.72977448 103.69838828 18.7890625 100.6628418 C19.00748354 97.48688177 19.29664949 96.79804465 21.4765625 94.2878418 C24.72511217 92.49077177 27.8216862 91.56093587 31.4140625 90.6628418 C31.7440625 90.3328418 32.0740625 90.0028418 32.4140625 89.6628418 C31.20347168 89.65349609 29.99288086 89.64415039 28.74560547 89.63452148 C24.2388884 89.59454231 19.73284828 89.5287614 15.2265625 89.45532227 C13.27906005 89.42715858 11.33144428 89.40592119 9.38378906 89.3918457 C6.57818782 89.37035233 3.7739425 89.32366982 0.96875 89.2722168 C0.10289276 89.27098816 -0.76296448 89.26975952 -1.65505981 89.26849365 C-7.22163941 89.1346984 -10.30207659 88.2891483 -14.5859375 84.6628418 C-16.06490455 81.7049077 -15.75920134 78.69150039 -15.77880859 75.44677734 C-15.78698608 74.70349182 -15.79516357 73.9602063 -15.80358887 73.19439697 C-15.82844378 70.72945972 -15.84495904 68.26458006 -15.859375 65.79956055 C-15.86469868 64.95812815 -15.87002235 64.11669575 -15.87550735 63.2497654 C-15.90223938 58.79607682 -15.92161407 54.34241628 -15.93603516 49.88867188 C-15.95268332 45.28829696 -15.99746174 40.6886384 -16.0484066 36.08853436 C-16.08206156 32.55146969 -16.09361061 29.01457543 -16.09926224 25.47736549 C-16.10597962 23.78167051 -16.12121446 22.08598693 -16.14515305 20.39044762 C-16.17677194 18.01540115 -16.17684731 15.6422915 -16.16943359 13.26708984 C-16.18583893 12.56820145 -16.20224426 11.86931305 -16.21914673 11.14924622 C-16.17446931 7.6481272 -15.60421986 5.69145078 -13.71109009 2.72900391 C-9.17535537 -0.2697499 -5.33171833 -0.04546177 0 0 Z M-9.5859375 8.6628418 C-10.62038378 11.76618063 -10.70677174 13.89160428 -10.69946289 17.14404297 C-10.69934204 18.28063354 -10.69922119 19.41722412 -10.69909668 20.58825684 C-10.69398071 21.78204956 -10.68886475 22.97584229 -10.68359375 24.20581055 C-10.68258667 25.30364868 -10.68157959 26.40148682 -10.68054199 27.53259277 C-10.67530502 31.63851972 -10.66134378 35.74443179 -10.6484375 39.8503418 C-10.6278125 49.0284668 -10.6071875 58.2065918 -10.5859375 67.6628418 C25.7140625 67.6628418 62.0140625 67.6628418 99.4140625 67.6628418 C99.4759375 58.5259668 99.5378125 49.3890918 99.6015625 39.9753418 C99.62887451 37.09726807 99.65618652 34.21919434 99.68432617 31.25390625 C99.693089 28.96964945 99.70073342 26.68538797 99.70703125 24.40112305 C99.72237915 23.21756226 99.73772705 22.03400146 99.75354004 20.8145752 C99.75390259 19.67822632 99.75426514 18.54187744 99.75463867 17.37109375 C99.76130051 16.38736282 99.76796234 15.4036319 99.77482605 14.39009094 C99.34764777 11.16076915 98.3190107 9.28289096 96.4140625 6.6628418 C94.15053992 5.53108051 92.91639865 5.53263174 90.40408325 5.5223999 C89.56569916 5.51668976 88.72731506 5.51097961 87.86352539 5.50509644 C86.48112671 5.50341965 86.48112671 5.50341965 85.07080078 5.50170898 C84.10157684 5.49674408 83.13235291 5.49177917 82.13375854 5.48666382 C78.91729023 5.4720207 75.70087122 5.46523679 72.484375 5.4597168 C70.25479124 5.45396734 68.0252075 5.44820958 65.79562378 5.44244385 C61.11651376 5.43192789 56.43742096 5.42608904 51.75830078 5.42260742 C45.75680347 5.41711992 39.75553272 5.39308879 33.75410652 5.36463547 C29.14736258 5.34603067 24.54067346 5.34080465 19.93389511 5.33927155 C17.72106563 5.33623987 15.50823723 5.32819409 13.29544449 5.31508636 C10.20215768 5.29807033 7.10942764 5.2998953 4.01611328 5.30639648 C3.09856262 5.2971817 2.18101196 5.28796692 1.23565674 5.2784729 C-4.82510965 5.21621062 -4.82510965 5.21621062 -9.5859375 8.6628418 Z M-10.5859375 73.6628418 C-10.35260417 80.29617513 -10.35260417 80.29617513 -7.5859375 82.6628418 C-5.65659077 82.97417083 -5.65659077 82.97417083 -3.41737366 82.93699646 C-2.54388779 82.94697159 -1.67040192 82.95694672 -0.77044678 82.96722412 C0.6704129 82.96822113 0.6704129 82.96822113 2.14038086 82.96923828 C3.65514763 82.98172356 3.65514763 82.98172356 5.20051575 82.99446106 C8.55168467 83.01863372 11.90265929 83.02734162 15.25390625 83.03393555 C17.57556723 83.04289559 19.89722759 83.0520173 22.21888733 83.06129456 C27.09051927 83.07780636 31.9620823 83.08548879 36.83374023 83.08837891 C43.08661706 83.09376818 49.33884953 83.13146204 55.59154415 83.17712307 C60.38784674 83.20681337 65.18399258 83.2141007 69.9803791 83.21510506 C72.28615842 83.21932251 74.59193757 83.23181732 76.89762688 83.2526226 C80.1183549 83.27937295 83.33756856 83.27476009 86.55834961 83.26220703 C87.5168985 83.27704132 88.47544739 83.29187561 89.46304321 83.30715942 C91.88295888 83.28019716 94.05783428 83.21308256 96.4140625 82.6628418 C99.36435379 79.47346018 99.4140625 78.04827485 99.4140625 73.6628418 C63.1140625 73.6628418 26.8140625 73.6628418 -10.5859375 73.6628418 Z M39.4140625 88.6628418 C39.0221875 89.5909668 38.6303125 90.5190918 38.2265625 91.4753418 C35.2245946 96.75466466 31.04558065 97.9602898 25.4140625 99.6628418 C25.7440625 100.6528418 26.0740625 101.6428418 26.4140625 102.6628418 C38.2940625 102.6628418 50.1740625 102.6628418 62.4140625 102.6628418 C62.7440625 101.3428418 63.0740625 100.0228418 63.4140625 98.6628418 C61.58875 98.3225293 61.58875 98.3225293 59.7265625 97.9753418 C55.44326947 96.91211303 53.2136308 95.14109332 50.4140625 91.6628418 C50.0840625 90.6728418 49.7540625 89.6828418 49.4140625 88.6628418 C46.1140625 88.6628418 42.8140625 88.6628418 39.4140625 88.6628418 Z " fill="#FFBC5E" transform="translate(19.5859375,8.337158203125)"/>
<path d="M0 0 C4.30180318 3.03081588 8.06179562 6.10821534 9.34765625 11.39453125 C9.593017 13.58895487 9.73999026 15.73035221 9.75 17.9375 C10.86375 18.246875 10.86375 18.246875 12 18.5625 C15.58368332 20.35434166 16.78492182 22.49861318 18.75 25.9375 C20.36371538 30.77864615 20.72689633 36.12361383 19.03125 41.0078125 C16.46830607 45.78232901 13.13141254 48.65024998 8.4375 51.1875 C3.3170547 52.61646148 -0.93909816 52.33743615 -5.9375 50.8125 C-9.8227761 49.78620065 -10.69019283 50.37465783 -14.25 51.9375 C-20.58138649 52.56025933 -24.9955553 51.60887482 -30.25 47.9375 C-34.51341364 43.89569944 -36.3875388 40.11580433 -36.5625 34.25 C-36.50902957 29.02517466 -35.25840485 25.2045232 -32.25 20.9375 C-29.0625 17.9375 -29.0625 17.9375 -26.25 17.9375 C-26.26353516 17.1021875 -26.26353516 17.1021875 -26.27734375 16.25 C-26.04007325 10.14286364 -24.34236854 6.880225 -20.06640625 2.53515625 C-14.50211053 -2.35903074 -6.82010438 -2.22964951 0 0 Z M-19.25 10.9375 C-19.97472205 13.55664951 -19.97472205 13.55664951 -20.25 15.9375 C-11.71118444 17.70227905 -4.72558021 18.14556699 3.75 15.9375 C3.09004648 11.03379475 1.58526155 9.11914764 -2.22265625 6.12109375 C-4.99830706 4.50062709 -7.06449468 4.09275201 -10.25390625 4.34765625 C-14.02395719 5.46170261 -16.91204086 7.81344445 -19.25 10.9375 Z M-19.25 21.9375 C-18.59 23.2575 -17.93 24.5775 -17.25 25.9375 C-16.26 25.9375 -15.27 25.9375 -14.25 25.9375 C-13.92 24.6175 -13.59 23.2975 -13.25 21.9375 C-15.23 21.9375 -17.21 21.9375 -19.25 21.9375 Z M-3.25 21.9375 C-2.92 23.2575 -2.59 24.5775 -2.25 25.9375 C-1.26 25.9375 -0.27 25.9375 0.75 25.9375 C1.41 24.6175 2.07 23.2975 2.75 21.9375 C0.77 21.9375 -1.21 21.9375 -3.25 21.9375 Z M-26.25 23.9375 C-28.76549054 27.16047225 -30.16655905 29.35341337 -30.75 33.4375 C-30.01000464 38.61746752 -27.95464268 41.59172946 -23.875 44.8125 C-20.76397678 46.14579567 -18.60266617 46.31001846 -15.25 45.9375 C-14.59 45.2775 -13.93 44.6175 -13.25 43.9375 C-13.559375 43.23625 -13.86875 42.535 -14.1875 41.8125 C-15.25 38.9375 -15.25 38.9375 -15.4375 36 C-16.48251551 32.0610954 -18.31093456 30.76490586 -21.4609375 28.33203125 C-23.20210648 26.97483185 -24.72142086 25.52703475 -26.25 23.9375 Z M8.75 23.9375 C6.9261914 25.94414656 5.19124185 28.01853522 3.44140625 30.08984375 C1.75 31.9375 1.75 31.9375 -0.25 32.9375 C-0.9025075 34.95487076 -0.9025075 34.95487076 -1.3125 37.3125 C-1.83410686 39.95933151 -2.39392083 42.3692625 -3.25 44.9375 C-0.38391871 46.37054064 1.56300783 46.24394155 4.75 45.9375 C9.06646551 43.65231238 11.8476625 41.48197291 13.75 36.9375 C14.31913182 32.46574996 14.04326868 30.4578154 11.8125 26.5 C10.7915625 25.2315625 10.7915625 25.2315625 9.75 23.9375 C9.42 23.9375 9.09 23.9375 8.75 23.9375 Z M-10.25 34.9375 C-9.92 36.5875 -9.59 38.2375 -9.25 39.9375 C-8.59 39.9375 -7.93 39.9375 -7.25 39.9375 C-6.92 38.2875 -6.59 36.6375 -6.25 34.9375 C-7.57 34.9375 -8.89 34.9375 -10.25 34.9375 Z " fill="#FFBC5E" transform="translate(72.25,20.0625)"/>
<path d="M0 0 C2.69990662 1.79993774 4.5418865 3.083773 6 6 C6.03806058 10.01158463 5.89721746 13.76632599 3.5 17.0625 C-0.36507746 18.51190405 -3.93222366 18.64188764 -8 18 C-10.5625 16.5625 -10.5625 16.5625 -12 14 C-12.66105436 9.81076014 -12.67743484 6.29035207 -10.6875 2.5 C-7.47514926 -0.35542288 -4.11519914 -0.41151991 0 0 Z M-5 6 C-5.33 7.65 -5.66 9.3 -6 11 C-3.525 11.495 -3.525 11.495 -1 12 C-0.3185177 10.10820797 -0.3185177 10.10820797 0 8 C-0.66 7.34 -1.32 6.68 -2 6 C-2.99 6 -3.98 6 -5 6 Z " fill="#FFBC5E" transform="translate(111,101)"/>
<path d="M0 0 C1.65 0.33 3.3 0.66 5 1 C5 11.23 5 21.46 5 32 C2.525 32.495 2.525 32.495 0 33 C-1.90849948 31.09150052 -1.13059633 27.68521226 -1.1328125 25.15625 C-1.13376923 24.47195923 -1.13472595 23.78766846 -1.13571167 23.0826416 C-1.1363933 21.63338123 -1.13454023 20.18411782 -1.13037109 18.73486328 C-1.12502252 16.50937072 -1.1303166 14.28407999 -1.13671875 12.05859375 C-1.13605797 10.65364539 -1.1347768 9.24869715 -1.1328125 7.84375 C-1.13168457 6.55662109 -1.13055664 5.26949219 -1.12939453 3.94335938 C-1 1 -1 1 0 0 Z " fill="#FFBC5E" transform="translate(107,21)"/>
<path d="M0 0 C2.5 1.625 2.5 1.625 4 4 C4.63656938 7.73984509 4.25584708 9.50962644 2.5 12.875 C-0.54168979 15.46043632 -2.20007233 15.69010681 -6.09375 15.4140625 C-8 15 -8 15 -10.5 13.4375 C-12.58392818 10.05111671 -12.55802097 7.90614682 -12 4 C-9.10910635 -0.69770218 -5.08522732 -1.02121368 0 0 Z M-6 6 C-6 6.99 -6 7.98 -6 9 C-4.68 8.67 -3.36 8.34 -2 8 C-2.33 7.34 -2.66 6.68 -3 6 C-3.99 6 -4.98 6 -6 6 Z " fill="#FFBC5E" transform="translate(23,104)"/>
<path d="M0 0 C1.65 0.33 3.3 0.66 5 1 C5 8.92 5 16.84 5 25 C3.35 25.33 1.7 25.66 0 26 C-1.71567792 24.28432208 -1.13015825 22.02627265 -1.1328125 19.6875 C-1.13410156 18.61242187 -1.13539062 17.53734375 -1.13671875 16.4296875 C-1.13091797 14.73199219 -1.13091797 14.73199219 -1.125 13 C-1.12886719 11.86820313 -1.13273437 10.73640625 -1.13671875 9.5703125 C-1.13542969 8.49523437 -1.13414063 7.42015625 -1.1328125 6.3125 C-1.13168457 5.31863281 -1.13055664 4.32476562 -1.12939453 3.30078125 C-1 1 -1 1 0 0 Z " fill="#FFBC5E" transform="translate(22,36)"/>
<path d="M0 0 C1.98 0.495 1.98 0.495 4 1 C4 8.26 4 15.52 4 23 C2.35 23 0.7 23 -1 23 C-1.02887512 19.35418313 -1.04675585 15.70839537 -1.0625 12.0625 C-1.07087891 11.02158203 -1.07925781 9.98066406 -1.08789062 8.90820312 C-1.09272461 7.42416992 -1.09272461 7.42416992 -1.09765625 5.91015625 C-1.10289307 4.99371338 -1.10812988 4.07727051 -1.11352539 3.13305664 C-1 1 -1 1 0 0 Z " fill="#FFBC5E" transform="translate(15,21)"/>
<path d="M0 0 C1.65 0.33 3.3 0.66 5 1 C5 4.63 5 8.26 5 12 C3.35 12.33 1.7 12.66 0 13 C-1 12 -1 12 -1.1328125 9.53125 C-1.13023438 8.5309375 -1.12765625 7.530625 -1.125 6.5 C-1.12757812 5.4996875 -1.13015625 4.499375 -1.1328125 3.46875 C-1 1 -1 1 0 0 Z " fill="#FFBC5E" transform="translate(97,44)"/>
<path d="M0 0 C1.65 0.33 3.3 0.66 5 1 C4.67 2.65 4.34 4.3 4 6 C2.35 5.67 0.7 5.34 -1 5 C-0.67 3.35 -0.34 1.7 0 0 Z " fill="#FFBC5E" transform="translate(107,56)"/>
<path d="M0 0 C1.65 0.33 3.3 0.66 5 1 C4.67 2.65 4.34 4.3 4 6 C2.35 5.67 0.7 5.34 -1 5 C-0.67 3.35 -0.34 1.7 0 0 Z " fill="#FFBC5E" transform="translate(97,36)"/>
<path d="M0 0 C1.98 0.495 1.98 0.495 4 1 C3.67 2.65 3.34 4.3 3 6 C1.68 5.67 0.36 5.34 -1 5 C-0.67 3.35 -0.34 1.7 0 0 Z " fill="#FFBC5E" transform="translate(30,101)"/>
<path d="M0 0 C1.65 0.33 3.3 0.66 5 1 C4.67 2.32 4.34 3.64 4 5 C2.35 4.67 0.7 4.34 -1 4 C-0.67 2.68 -0.34 1.36 0 0 Z " fill="#FFBC5E" transform="translate(92,99)"/>
<path d="M0 0 C1.65 0.33 3.3 0.66 5 1 C4.67 2.32 4.34 3.64 4 5 C2.35 4.67 0.7 4.34 -1 4 C-0.67 2.68 -0.34 1.36 0 0 Z " fill="#FFBC5E" transform="translate(102,84)"/>
<path d="M0 0 C1.65 0.33 3.3 0.66 5 1 C4.67 2.32 4.34 3.64 4 5 C2.35 4.67 0.7 4.34 -1 4 C-0.67 2.68 -0.34 1.36 0 0 Z " fill="#FFBC5E" transform="translate(22,64)"/>
<path d="M0 0 C1.65 0 3.3 0 5 0 C5 1.65 5 3.3 5 5 C3.35 5 1.7 5 0 5 C0 3.35 0 1.7 0 0 Z " fill="#FFBC5E" transform="translate(109,84)"/>
<path d="M0 0 C1.65 0 3.3 0 5 0 C5 1.65 5 3.3 5 5 C3.35 5 1.7 5 0 5 C0 3.35 0 1.7 0 0 Z " fill="#FFBC5E" transform="translate(94,84)"/>
</svg>
